<svg xmlns="http://www.w3.org/2000/svg" xmlns:xlink="http://www.w3.org/1999/xlink" width="500" zoomAndPan="magnify" viewBox="0 0 375 374.999991" height="500" preserveAspectRatio="xMidYMid meet" version="1.0"><defs><filter x="0%" y="0%" width="100%" height="100%" id="482c5f00ae"><feColorMatrix values="0 0 0 0 1 0 0 0 0 1 0 0 0 0 1 0 0 0 1 0" color-interpolation-filters="sRGB"/></filter><clipPath id="8b80a98abd"><path d="M 108.378906 118.980469 L 265.847656 118.980469 L 265.847656 256.957031 L 108.378906 256.957031 Z M 108.378906 118.980469 " clip-rule="nonzero"/></clipPath><clipPath id="d6ebc64dc5"><path d="M 108.378906 159.6875 C 108.378906 203.507812 187.027344 256.957031 187.027344 256.957031 C 187.027344 256.957031 265.332031 203.132812 265.675781 159.6875 C 265.675781 137.257812 247.398438 118.980469 224.96875 118.980469 C 207.730469 118.980469 192.878906 130.019531 187.027344 145.183594 C 181.175781 130.019531 166.328125 118.980469 149.089844 118.980469 C 126.660156 118.980469 108.378906 137.257812 108.378906 159.6875 " clip-rule="nonzero"/></clipPath><mask id="032b1de3e9"><g filter="url(#482c5f00ae)"><rect x="-37.5" width="450" fill="#000000" y="-37.499999" height="449.999989" fill-opacity="0.82"/></g></mask><clipPath id="015e6e282e"><path d="M 0.4375 0.148438 L 125.757812 0.148438 L 125.757812 109.957031 L 0.4375 109.957031 Z M 0.4375 0.148438 " clip-rule="nonzero"/></clipPath><clipPath id="96fe93f83e"><path d="M 0.4375 32.546875 C 0.4375 67.421875 63.027344 109.957031 63.027344 109.957031 C 63.027344 109.957031 125.34375 67.121094 125.621094 32.546875 C 125.621094 14.695312 111.074219 0.148438 93.222656 0.148438 C 79.503906 0.148438 67.6875 8.9375 63.027344 21.003906 C 58.371094 8.9375 46.554688 0.148438 32.835938 0.148438 C 14.984375 0.148438 0.4375 14.695312 0.4375 32.546875 " clip-rule="nonzero"/></clipPath><clipPath id="9598b5e482"><rect x="0" width="126" y="0" height="111"/></clipPath></defs><path fill="#1b9ce4" d="M 70.5625 169.941406 C 70.5625 108.300781 120.53125 58.332031 182.171875 58.332031 C 210.351562 58.332031 236.089844 68.78125 255.730469 86.011719 C 234.367188 52.890625 197.140625 30.957031 154.792969 30.957031 C 88.503906 30.957031 34.761719 84.699219 34.761719 150.988281 C 34.761719 208.582031 75.328125 256.691406 129.449219 268.328125 C 94.394531 249.507812 70.5625 212.511719 70.5625 169.941406 " fill-opacity="1" fill-rule="nonzero"/><path fill="#183e9f" d="M 297.445312 1.769531 C 295.246094 0.941406 294.265625 3.242188 293.890625 6.335938 C 293.152344 12.375 295.570312 18.351562 300.144531 22.359375 C 348 64.292969 338.714844 167.03125 307.4375 160.90625 C 286.90625 156.886719 308.773438 95.847656 291.65625 93.769531 C 280.285156 92.390625 270.179688 120.679688 270.902344 157.984375 C 271.316406 179.332031 278.171875 196.945312 284.191406 212.234375 C 292.917969 234.378906 284.902344 259.734375 264.835938 272.535156 C 200.996094 313.28125 115.25 305.773438 59.484375 250.003906 C 30.023438 220.542969 14.039062 182.707031 11.515625 144.15625 C -0.800781 201.242188 15.273438 263.222656 59.753906 307.515625 C 115.8125 363.347656 205.332031 374.964844 273.847656 335.402344 C 338.882812 297.839844 366.085938 220.550781 369.957031 148.695312 C 374.878906 57.292969 322.421875 11.175781 297.445312 1.769531 Z M 288.480469 51.78125 C 313.34375 73.628906 322.738281 111.894531 321.636719 142.714844 C 325.539062 133.15625 327.65625 119.164062 327.171875 104.179688 C 326.527344 84.152344 321.757812 65.390625 313.785156 50.1875 C 303.46875 40.269531 293.308594 33.992188 285.703125 31.125 C 283.449219 30.277344 282.480469 32.703125 282.121094 35.90625 C 281.453125 41.914062 283.941406 47.792969 288.480469 51.78125 " fill-opacity="1" fill-rule="nonzero"/><g clip-path="url(#8b80a98abd)"><g clip-path="url(#d6ebc64dc5)"><path fill="#183e9f" d="M 108.378906 118.980469 L 265.535156 118.980469 L 265.535156 256.957031 L 108.378906 256.957031 Z M 108.378906 118.980469 " fill-opacity="1" fill-rule="nonzero"/></g></g><g mask="url(#032b1de3e9)"><g transform="matrix(1, 0, 0, 1, 124, 147)"><g clip-path="url(#9598b5e482)"><g clip-path="url(#015e6e282e)"><g clip-path="url(#96fe93f83e)"><path fill="#54afe6" d="M 0.4375 0.148438 L 125.507812 0.148438 L 125.507812 109.957031 L 0.4375 109.957031 Z M 0.4375 0.148438 " fill-opacity="1" fill-rule="nonzero"/></g></g></g></g></g></svg>